<svg xmlns="http://www.w3.org/2000/svg" width="788.44" height="646" viewBox="0 0 788.44 646"><defs><style>.cls-1{fill:#6784ff;}.cls-2,.cls-5{fill:#fff;}.cls-10,.cls-11,.cls-12,.cls-13,.cls-3,.cls-6,.cls-7,.cls-8,.cls-9{fill:none;}.cls-3,.cls-5{stroke:#000;}.cls-12,.cls-13,.cls-3,.cls-4,.cls-5,.cls-6,.cls-7,.cls-8,.cls-9{stroke-linecap:round;}.cls-13,.cls-3,.cls-4,.cls-5,.cls-6,.cls-7,.cls-8,.cls-9{stroke-linejoin:round;}.cls-4{fill:#ecf2ff;}.cls-4,.cls-6{stroke:#041133;}.cls-7{stroke:#0c1f49;}.cls-13,.cls-8{stroke:#ff8a62;}.cls-9{stroke:#ff8960;}.cls-10{stroke:#ff8962;}.cls-11,.cls-12{stroke:#6784ff;}.cls-13{stroke-width:3px;}</style></defs><circle class="cls-1" cx="415.37" cy="342.06" r="9.52"></circle><path class="cls-2" d="M376.83,172.38c-3.48-2-7.81-1.95-11.78-1.43a6.88,6.88,0,0,1-2.71.05,2,2,0,0,1-1.62-1.92c.07-.91.95-1.52,1.77-1.92a15.58,15.58,0,0,1,12.39-.95,9.65,9.65,0,0,1,3.45,1.91C381,171,379.35,173.8,376.83,172.38Z"></path><path class="cls-2" d="M367.07,223.08c-7.34-10.82,3.9-25.19,1.58-52.74l.82-5,.79-4.32a41,41,0,0,1,6.33-35.11c.53,1.94,1.37,4.26,1.9,6.21l-1.7-2.68c13.56-5.85,27.8-10.11,42.49-11.65s30.37,1.28,41.86,10.55c9.69,7.82,15.67,19.75,17.34,32.09s-.75,25-5.72,36.45l-3-14.49,7.49,1c2.06,11.41-3.12,22.71-7.43,33.48s-7.76,23.25-2.56,33.61c-2.21-1.14-5.57-3-7.77-4.11l.37-3.8,1.6,10.55c-2.55-.81-4.52-1.3-7.07-2.11l-.06,9.57c-2.65-.58-5.16-1.47-7.81-2.05l1.62-3.42a129.37,129.37,0,0,0,5.38,47c-19.67,13.81-47,15.89-68.69,5.49,3-7.13,3.88-19.3,3-27l2.85,3.43a51.53,51.53,0,0,1-9.77-2.18c-.1-1.65-.78-4-.88-5.63a46.44,46.44,0,0,1-15.1-1.12,18,18,0,0,1-11.3-9.49c4.55-3.24,7.75-9.11,9.32-14.47s1.93-11,2.28-16.56C365.43,230.93,366.84,226.85,367.07,223.08Z"></path><path class="cls-3" d="M376.59,125.94c.53,1.94,1.37,4.26,1.9,6.21"></path><path class="cls-2" d="M472.76,196.91c5-11.42,7.4-24.11,5.72-36.45s-7.65-24.27-17.34-32.09c-11.49-9.27-27.18-12.09-41.86-10.55A140.59,140.59,0,0,0,377.54,129l-3,9.43,43.87,4.62L447.93,180Z"></path><path class="cls-3" d="M377.54,129a140.59,140.59,0,0,1,41.74-11.22c14.68-1.54,30.37,1.28,41.86,10.55,9.69,7.82,15.67,19.75,17.34,32.09s-.75,25-5.72,36.45"></path><path class="cls-3" d="M477.23,183.45c2.06,11.41-3.12,22.71-7.43,33.48s-7.76,23.25-2.56,33.61l-6.62-3.43"></path><path class="cls-3" d="M459.84,242.63l1.6,10.55c-2.55-.81-4.52-1.3-7.07-2.11"></path><path class="cls-3" d="M454.37,251.07l-.06,9.57-6.38-1.4"></path><path class="cls-3" d="M427.26,140.22a56,56,0,0,1,21.42,30.12"></path><path class="cls-3" d="M440.55,137.08a37,37,0,0,1,22.73,24.84"></path><path class="cls-3" d="M404.09,171.71c4.15-1,8.59.29,12.51,2a7.79,7.79,0,0,0,2.78.85,2.17,2.17,0,0,0,2.23-1.51,2.9,2.9,0,0,0-1.26-2.48A16.6,16.6,0,0,0,407.9,166a10.21,10.21,0,0,0-4.1.94C400.23,169.1,401.08,172.44,404.09,171.71Z"></path><path class="cls-3" d="M376.83,172.38c-3.48-2-7.81-1.95-11.78-1.43a6.88,6.88,0,0,1-2.71.05,2,2,0,0,1-1.62-1.92c.07-.91.95-1.52,1.77-1.92a15.54,15.54,0,0,1,12.39-.94,9.48,9.48,0,0,1,3.45,1.9C381,171,379.35,173.8,376.83,172.38Z"></path><path class="cls-3" d="M409.36,187.13l-.46,4.72"></path><path class="cls-3" d="M377.42,186.34s-.71,5.43-.71,6.31"></path><path class="cls-3" d="M379.59,242.73a38.19,38.19,0,0,0,30.29.36"></path><path class="cls-3" d="M380.48,281.75c-.1-1.66-.38-3.75-.48-5.41a46.44,46.44,0,0,1-15.1-1.12,18,18,0,0,1-11.3-9.49c4.55-3.24,7.75-9.11,9.32-14.47s1.93-11,2.28-16.56c.23-3.77,1.64-7.85,1.87-11.62.44,1.63,2.07,3,3.09,4.35a4.43,4.43,0,0,0,4.41,1.86c1.64-.43,2.7-1.95,3.81-3.21,4.48-5.1,15.92-4,19.89.57,2.87,3.33,7,6,11.39,6.2s8.51-2.81,12-5.69l16.41-13.49"></path><path class="cls-3" d="M381.29,282.2a54.38,54.38,0,0,0,53.89-12.54c5.43-5.33,7.2-10.77,7.29-19,.06-6.18-2.39-12.06-4.11-18s-2.67-12.6.2-18.07"></path><path class="cls-3" d="M449.19,203.23a9.49,9.49,0,0,1,17.86-1.66,13.5,13.5,0,0,1,.57,8.2,23.51,23.51,0,0,1-14.26,17"></path><path class="cls-3" d="M387.8,284.33a48.41,48.41,0,0,1-3,23.36c21.67,10.4,49,8.32,68.69-5.49a129.2,129.2,0,0,1-.14-75.39"></path><path class="cls-3" d="M460.62,210.36c-3.27-3.6-8.52-2.83-10.88,2.07,4.72,1.24,3.66,5.19,1,6.66"></path><path class="cls-3" d="M385.92,182.76c5.55,14.15-11.67,27.14-11.32,31.86s9.06,7.56,13.2,8.08"></path><ellipse class="cls-3" cx="368.36" cy="191.75" rx="14.2" ry="15.42"></ellipse><ellipse class="cls-3" cx="408.9" cy="192.39" rx="16.03" ry="16.77"></ellipse><path class="cls-3" d="M422.26,183.13c.29.47,28.89,16.31,28.89,16.31"></path><path class="cls-3" d="M379.59,182.31c4-3.8,12.6-2.59,15.75,1.14"></path><path class="cls-3" d="M450.25,200.69c-5.75,1-9.12,9.14-9.12,9.14-1.15-7.78,2.78-57.33-29.58-58.21-15.09-.42-17.15,3.62-24.09,3s-16,.39-17.2,6.43a41,41,0,0,1,6.33-35.11"></path><line class="cls-3" x1="370.26" y1="161.05" x2="369.47" y2="165.37"></line><path class="cls-3" d="M368.65,170.34c2.32,27.55-8.92,41.92-1.58,52.74"></path><path class="cls-3" d="M459.18,174.23c1.06,6.58,5.22,13.93,5.22,13.93l3.59-4.71s4.74,7.14,6.77,8.4"></path><path class="cls-4" d="M575.41,531.29c-19-112.29,2.92-199.45-29.32-212.06-28.84-11.29-62.13-16.42-93.61-20.47h0c.32,1.15.66,2.3,1,3.44-19.67,13.81-47,15.89-68.69,5.49a43.65,43.65,0,0,0,2.86-10.89h0c-36.6,3.56-60.13,4.45-94.46,17.45-42.46,16.07-53.1,217-53.1,217Z"></path><path class="cls-3" d="M400.38,322.09a56.12,56.12,0,0,0,53.39-11.9"></path><path class="cls-3" d="M337.4,377c-11.4,11.13-29.64,147.82-29.64,154.34"></path><path class="cls-3" d="M278.12,496c13.68,9.12,27.36,11.4,24.32,14.44s-24.32,3-24.32,3"></path><path class="cls-3" d="M360.71,396.44c-10.39,19-37.09,29.1-38.13,34.84"></path><path class="cls-3" d="M499.91,380.37c-.76,22.15,6.84,136.8,6.08,150.92"></path><path class="cls-3" d="M464.19,461.05c7.6,22,40.68,34.91,41.06,43.7"></path><path class="cls-3" d="M456.39,399.94c20.72,7.9,44.1,7.45,44.1,7.45"></path><path class="cls-3" d="M293.21,314.25c-42.46,16.07-53.1,217-53.1,217h335.3"></path><polygon class="cls-5" points="441.43 431.28 410.37 472.75 530.53 472.75 576.37 431.28 441.43 431.28"></polygon><rect class="cls-5" x="290.2" y="472.75" width="120.17" height="101.86"></rect><rect class="cls-5" x="410.37" y="472.75" width="120.17" height="101.86"></rect><polygon class="cls-5" points="379.3 431.28 244.36 431.28 290.2 472.75 410.37 472.75 379.3 431.28"></polygon><path class="cls-4" d="M530.53,510v52.56c6.34,5.46,13.54,9.79,26.07,9.79,33.18,0,29.42-80-4.41-72.31C536.71,503.55,530.53,510,530.53,510Z"></path><path class="cls-2" d="M530.53,514.42c-14.1-3.17-49.38-22.74-53.4-24.75-3.25,4.79-3.1,14.23,15.31,22.12,4.18-1.55,1.5-2.78.77-2.78-34.36-.38-42.23-.3-42.54,5s15.78,6.9,37.28,9.42c.95.11.17-1.46-.21-1.48-24.43-1-37.09.24-37.25,5s15.9,7.44,36.61,6.85c.51,0-.23-2-.23-2s-33.24.89-33.18,6.1,38.13,6.42,38.13,6.42l-.23-1.11s-29.78-.27-29.78,4.68,23.28,9.26,68.72,11.28C559.61,559.13,553.35,519.54,530.53,514.42Z"></path><path class="cls-3" d="M530.53,514.42c-14.1-3.17-49.38-22.74-53.4-24.75-2.87,4.23-3.08,12.06,9.53,19.27-28.82-.27-35.7.12-36,5-.23,3.95,8.77,5.86,22.37,7.63-14.79.06-22.43,1.63-22.55,5.35-.09,3.07,6.45,5.25,16.59,6.28-7.12.91-13.42,2.36-13.39,4.63,0,3.14,13.86,4.82,24.86,5.67-8,.49-16.74,1.64-16.74,4.32,0,4.95,23.28,9.26,68.72,11.28C559.61,559.13,553.35,519.54,530.53,514.42Z"></path><path class="cls-6" d="M550.06,553c1.43,0,17.67-1.62,17.67-1.62"></path><ellipse class="cls-6" cx="554.57" cy="560.61" rx="1.91" ry="4.06"></ellipse><path class="cls-7" d="M456.12,511.07c3.37.9,3.13,6,0,5.8"></path><path class="cls-7" d="M455.16,524.4c2.65.71,2.47,4.7,0,4.55"></path><path class="cls-7" d="M458.31,536c2.16.58,2,3.85,0,3.73"></path><path class="cls-7" d="M465.94,546.52c2.17.58,2,3.85,0,3.73"></path><path class="cls-7" d="M477.59,512.58c.11.58,0,4.29,0,4.29"></path><path class="cls-7" d="M476.08,524.06c.62,1.39-.16,5.26-.43,6.58"></path><path class="cls-7" d="M476.34,535.08c.28,1.13.17,4.76-.57,5.92"></path><path class="cls-7" d="M486.05,546.3c.31.58,1.17,4.45.43,5.76"></path><path class="cls-7" d="M477.64,492.7c1.14.93,5.79,3.71,6.79,1.93"></path><path class="cls-7" d="M473,521.6c2.49,0,18.7.28,18.7.28"></path><path class="cls-7" d="M467.08,533.23c5.25-.58,20,.57,20,.57"></path><path class="cls-4" d="M290.49,503v61.67c-64,21.11-73.62-69-16.84-69A22.88,22.88,0,0,1,290.49,503Z"></path><path class="cls-2" d="M290.49,507.41c14.11-3.16,49.39-22.74,53.41-24.75,3.25,4.8,3.09,14.23-15.32,22.12-4.17-1.54-1.49-2.77-.77-2.78,34.37-.38,42.24-.3,42.55,5s-15.78,6.9-37.29,9.42c-.95.12-.16-1.46.21-1.48,24.43-1,37.1.25,37.25,5s-15.89,7.44-36.6,6.85c-.52,0,.22-2,.22-2s33.25.89,33.19,6.1-38.14,6.42-38.14,6.42l.24-1.11s29.78-.27,29.78,4.68-23.29,9.27-68.73,11.28C261.41,552.12,267.68,512.53,290.49,507.41Z"></path><path class="cls-3" d="M370.53,519.94c-.12-3.71-7.76-5.28-22.55-5.35,13.6-1.77,22.61-3.68,22.38-7.63-.29-4.9-7.17-5.3-36-5,12.61-7.2,12.4-15,9.54-19.27-4,2-39.3,21.59-53.41,24.75-22.81,5.12-29.08,44.71,0,44.71,45.44-2,68.73-6.33,68.73-11.28,0-2.68-8.74-3.83-16.74-4.32,11-.85,24.82-2.53,24.86-5.67,0-2.27-6.28-3.72-13.39-4.63C364.09,525.19,370.63,523,370.53,519.94Z"></path><path class="cls-6" d="M271,545.94c-1.43,0-17.67-1.62-17.67-1.62"></path><ellipse class="cls-6" cx="266.46" cy="553.6" rx="1.91" ry="4.06"></ellipse><path class="cls-7" d="M364.9,504.06c-3.36.91-3.13,6,0,5.8"></path><path class="cls-7" d="M365.86,517.39c-2.64.71-2.46,4.7,0,4.56"></path><path class="cls-7" d="M362.72,529c-2.17.59-2,3.85,0,3.73"></path><path class="cls-7" d="M355.08,539.51c-2.16.59-2,3.85,0,3.73"></path><path class="cls-7" d="M343.44,505.57c-.12.58,0,4.29,0,4.29"></path><path class="cls-7" d="M345,517.05c-.62,1.4.15,5.26.42,6.58"></path><path class="cls-7" d="M344.69,528.08c-.29,1.12-.17,4.75.56,5.91"></path><path class="cls-7" d="M335,539.29c-.31.58-1.16,4.45-.43,5.76"></path><path class="cls-7" d="M343.39,485.69c-1.15.93-5.79,3.71-6.8,1.93"></path><line class="cls-7" x1="347.98" y1="514.59" x2="329.65" y2="516.07"></line><line class="cls-7" x1="342.48" y1="536.52" x2="331.76" y2="536.16"></line><polyline class="cls-6" points="177.66 574.61 581.78 574.61 656.16 620.23"></polyline><path class="cls-8" d="M313.49,85.88a35.2,35.2,0,0,1-1-6.76"></path><path class="cls-8" d="M317.35,86.84h4.83"></path><path class="cls-8" d="M310.59,87.93a17,17,0,0,0-7.73.84"></path><path class="cls-8" d="M314.45,90.71v7.72"></path><path class="cls-8" d="M101.76,470.46a34.42,34.42,0,0,1-1-6.76"></path><path class="cls-8" d="M105.62,471.43h4.83"></path><path class="cls-8" d="M98.86,472.52a16.8,16.8,0,0,0-7.72.84"></path><path class="cls-8" d="M102.73,475.29V483"></path><path class="cls-3" d="M131.08,199.83a35.2,35.2,0,0,1-1-6.76"></path><path class="cls-3" d="M134.94,200.8h4.83"></path><path class="cls-3" d="M128.18,201.89a16.77,16.77,0,0,0-7.72.84"></path><path class="cls-3" d="M132.05,204.66v7.73"></path><path class="cls-9" d="M604.4,404.57A58.69,58.69,0,0,1,616,402.92"></path><path class="cls-9" d="M602.75,411.16v8.25"></path><path class="cls-9" d="M600.88,399.61a28.79,28.79,0,0,0-1.43-13.2"></path><path class="cls-9" d="M596.15,406.22H583"></path><path class="cls-6" d="M295.89,237.24a60.23,60.23,0,0,1,11.55-1.65"></path><path class="cls-6" d="M294.24,243.84v8.25"></path><path class="cls-6" d="M292.37,232.29a28.79,28.79,0,0,0-1.43-13.2"></path><path class="cls-6" d="M287.64,238.89h-13.2"></path>
<g id="coin-container-1" opacity="0">
  <g id="coin-1" transform="translate(-184.69, -183.45)"><circle class="cls-11" cx="184.69" cy="183.45" r="17.48"></circle><rect class="cls-8" x="177.31" y="173.68" width="14.77" height="19.54" rx="2.27" transform="translate(-62 266.58) rotate(-63.43)"></rect><circle class="cls-8" cx="184.69" cy="183.45" r="4.2"></circle><path class="cls-8" d="M185.05,184.52l-1.43-.71,1.07-2.14"></path>
  </g>
  <path id="coin-track-1" class="cls-13" stroke-dashoffset="231" stroke-dasharray="231" d="M272,398c-21.26-66.89-150.38-67.12-101.49-182.53"></path>
  <animate class="animation show" href="#coin-container-1" attributeName="opacity" fill="freeze" from="0" to="1" dur="100ms" begin="indefinite" repeatCount="1"></animate>
  <animateMotion class="animation show" href="#coin-1" dur="1s" fill="freeze" begin="indefinite" repeatCount="1" path="M272,398c-21.26-66.89-150.38-67.12-101.49-182.53L184.69,183.45"></animateMotion>
  <animate class="animation show" href="#coin-track-1" attributeName="stroke-dashoffset" dur="1s" begin="indefinite" fill="freeze" values="231;0" repeatCount="1"></animate>
  <animate class="animation hide" href="#coin-container-1" attributeName="opacity" fill="freeze" from="1" to="0" dur="400ms" begin="indefinite" repeatCount="1"></animate>
</g>

<g id="coin-container-2" opacity="0">
  <g id="coin-2" transform="translate(-542.98, -193.82)"><circle class="cls-10" cx="542.98" cy="193.82" r="17.48"></circle><rect class="cls-11" x="533.21" y="186.43" width="19.54" height="14.77" rx="2.27" transform="translate(-33.55 193.17) rotate(-19.58)"></rect><circle class="cls-11" cx="542.98" cy="193.82" r="4.2"></circle><path class="cls-12" d="M544,194.3l-1.5.53-.8-2.25"></path></g>
  <path id="coin-track-2" class="cls-13" stroke-dasharray="136" stroke-dashoffset="136" d="M496.08,331.08c32.56-1,69.84-63.29,55.45-108.38"></path>
  <animate class="animation show" href="#coin-container-2" attributeName="opacity" fill="freeze" from="0" to="1" dur="100ms" begin="indefinite" repeatCount="1"></animate>
  <animateMotion class="animation show" href="#coin-2" dur="1s" begin="indefinite" fill="freeze" repeatCount="1" path="M496.08,331.08c32.56-1,69.84-63.29,55.45-108.38L542.98,193.82"></animateMotion>
  <animate class="animation show" href="#coin-track-2" attributeName="stroke-dashoffset" dur="1s" begin="indefinite" fill="freeze" values="136;0" repeatCount="1"></animate>
  <animate class="animation hide" href="#coin-container-2" attributeName="opacity" fill="freeze" from="1" to="0" dur="400ms" begin="indefinite" repeatCount="1"></animate>
</g>
<g id="coin-container-3" opacity="0">
  <g id="coin-3" transform="translate(-644.53, -302.22)"><circle class="cls-10" cx="644.53" cy="302.22" r="17.48"></circle><rect class="cls-11" x="634.76" y="294.84" width="19.54" height="14.77" rx="2.27"></rect><circle class="cls-11" cx="644.53" cy="302.22" r="4.2"></circle><path class="cls-12" d="M645.32,303h-1.59v-2.39"></path></g>
  <path id="coin-track-3" class="cls-13" stroke-dasharray="120" stroke-dashoffset="120" d="M538.74,396.06c-1.54,0-.12,1.52,0,0,2.65-34.07,77.45-30,92.12-65"></path>
  <animate class="animation show" href="#coin-container-3" attributeName="opacity" fill="freeze" from="0" to="1" dur="100ms" begin="indefinite" repeatCount="1"></animate>
  <animateMotion class="animation show" href="#coin-3" dur="1s" begin="indefinite" fill="freeze" repeatCount="1" path="M538.74,396.06c-1.54,0-.12,1.52,0,0,2.65-34.07,77.45-30,92.12-65L644.53,302.22"></animateMotion>
  <animate class="animation show" href="#coin-track-3" attributeName="stroke-dashoffset" dur="1s" begin="indefinite" fill="freeze" values="120;0" repeatCount="1"></animate>
  <animate class="animation hide" href="#coin-container-3" attributeName="opacity" fill="freeze" from="1" to="0" dur="400ms" begin="indefinite" repeatCount="1"></animate>
</g>
<g id="coin-4" opacity="0">
<circle class="cls-11" cx="405.85" cy="402.91" r="17.48"></circle><rect class="cls-8" x="398.46" y="393.14" width="14.77" height="19.54" rx="2.27" transform="translate(-164.34 446.99) rotate(-49.21)"></rect><circle class="cls-8" cx="405.85" cy="402.91" r="4.2"></circle><path class="cls-8" d="M405.93,404l-1.2-1,1.56-1.81"></path>
  <animate class="animation show" href="#coin-4" attributeName="opacity" fill="freeze" from="0" to="1" dur="100ms" begin="indefinite" repeatCount="1"></animate>
 <animateTransform class="animation show" href="#coin-4" attributeName="transform" type="translate" from="0,50" to="0,0" begin="indefinite" dur="1s" fill="freeze" additive="sum" repeatCount="1"></animateTransform>
  <animateTransform class="animation show" href="#coin-4" attributeName="transform" type="rotate" values="0 405.85 402.91;360 405.85 402.91" begin="indefinite" dur="0.3s" fill="freeze" additive="sum" repeatCount="3"></animateTransform>
</g>
<animate class="animation hide" href="#coin-4" attributeName="opacity" fill="freeze" from="1" to="0" dur="200ms" begin="indefinite" repeatCount="1"></animate>
</svg>