<svg width="699" height="763" viewBox="0 0 699 763" fill="none" xmlns="http://www.w3.org/2000/svg">
<path d="M251.049 615.119C244.659 614.569 238.259 614.019 231.869 613.469C233.519 651.399 235.169 689.329 236.819 727.259H251.059V615.119H251.049Z" fill="white"/>
<path d="M444.459 615.119C450.849 614.569 457.249 614.019 463.639 613.469C461.989 651.399 460.339 689.329 458.689 727.259H444.449V615.119H444.459Z" fill="white"/>
<path d="M161.24 579.039C153.71 604.279 146.19 629.519 138.66 654.759C139.12 655.629 140.75 657.889 140.75 657.889L137.752 662.889L133.752 667.389L126.752 667.889L124.252 665.889C124.252 665.889 122.252 664.889 116.752 665.389C111.252 665.889 93.252 664.389 93.252 664.389C93.252 664.389 83.2498 660.889 80.252 660.889C77.2541 660.889 77.252 662.889 77.252 662.889L75.752 665.389C75.752 665.389 90.252 679.389 94.752 679.889C99.252 680.389 109.752 686.889 109.752 686.889C109.752 686.889 119.252 688.389 121.252 689.889C123.252 691.389 124.75 693.889 124.75 693.889L137.323 699.889L144.897 702.389L160.252 689.389C160.252 689.389 149.98 661.809 151.36 662.149C149.78 671.499 148.21 680.849 146.63 690.199C146.1 694.019 145.58 697.829 145.05 701.649C144.94 701.989 144.75 702.779 145 703.729C145.18 704.409 145.52 704.889 145.73 705.149C147.06 705.899 150.75 707.889 150.75 707.889C150.75 707.889 150.25 711.389 149.25 712.889C148.25 714.389 145.75 718.389 145.75 718.389C145.75 718.389 142.25 720.389 139.25 720.889C136.25 721.389 134.25 719.389 134.25 719.389C134.25 719.389 109.75 722.889 105.75 724.389C101.75 725.889 86.25 721.889 84.25 723.389C82.25 724.889 81.25 729.389 81.25 729.389C81.25 729.389 96.25 738.389 98.75 738.889C101.25 739.389 121.25 744.889 124.25 744.889C127.25 744.889 137.25 746.389 137.25 746.389L141.75 749.889L153.25 753.389L165.25 755.389C165.25 755.389 168.25 747.889 170.25 743.889C172.25 739.889 171.25 732.389 171.25 732.389L169.75 731.889C169.223 724.667 168.917 720.827 170.25 714.389L174.82 715.349C178.03 698.529 181.87 680.899 186.48 662.579C190.66 645.939 195.13 630.109 199.76 615.109C206.57 589.089 196.72 568.939 185.31 566.319C174.37 563.819 162.52 577.519 161.24 579.039Z" fill="white"/>
<path d="M500.58 237.459C505.1 236.629 511.76 235.959 519.65 237.269C521.95 237.649 523.7 237.949 525.97 238.789C533.39 241.529 537.66 246.829 542.03 252.409C544.15 255.109 546.99 259.149 549.67 264.549C548.94 264.649 548.2 264.749 547.47 264.859C548.84 272.409 550.22 279.949 551.59 287.499C550.76 287.119 549.93 286.729 549.09 286.349C548.83 288.109 548.57 289.869 548.31 291.629C534.31 284.139 513.89 270.009 503.53 245.589C502.35 242.839 501.38 240.129 500.58 237.459Z" fill="white"/>
<path d="M232.562 638.78C209.682 625.25 142.712 581.58 115.902 497.36C104.192 460.56 105.012 430.8 105.012 425.32C105.012 291.49 213.502 183 347.332 183C481.162 183 589.652 291.49 589.652 425.32C589.652 430.81 590.472 460.58 578.762 497.37C552.082 581.19 485.682 624.79 462.842 638.39C386.072 638.52 309.312 638.65 232.562 638.78Z" fill="white"/>
<path d="M307.29 462.229C304.45 459.909 304.21 458.879 300.79 460.229C287.29 471.229 294.12 476.079 294.36 477.569C294.6 479.059 300.59 490.009 303.89 494.949L303.99 495.089C307.61 500.499 310.73 505.169 315.3 509.729C318.08 512.499 320.71 515.779 323.8 518.229C327.08 520.829 332.3 525.229 333.3 526.229C334.3 527.229 339.04 531.009 341.8 532.229C344.86 533.579 346.88 535.589 349.8 537.229L349.86 537.259C354.66 539.949 360.76 543.369 365.8 545.229C374.37 548.389 381.65 551.419 391.18 551.389C395.93 551.379 401.7 551.659 403.8 551.729C405.9 551.789 406.21 551.239 409.3 551.229C412.61 551.219 423.13 548.729 426.1 547.809C428.96 546.919 432.01 545.929 434.64 544.509C436.86 543.299 435.49 544.879 442.04 541.239C448.59 537.599 459.81 538.229 459.81 538.229C459.81 538.229 463.69 531.009 464.81 529.229C465.93 527.449 474.08 508.789 476.81 497.729C478.64 490.319 481.47 482.659 483.31 475.229C484.55 470.189 486.39 464.839 487.56 459.799C489.99 449.319 495.59 430.969 496.31 428.229C497.03 425.489 499.88 420.249 500.81 415.729C501.46 412.589 503.48 410.429 503.81 407.229C503.91 406.209 504.58 404.769 504.81 403.729C505.2 401.959 506.91 400.529 507.31 398.729C507.73 396.869 509.56 395.459 510.31 393.729C510.93 392.289 511.1 391.419 511.87 389.999C513.24 387.459 515.98 385.279 517.31 382.729C518.35 380.749 520.82 380.949 520.81 378.729C517.81 375.729 508.28 373.329 505.31 372.229C502.34 371.129 499.94 370.509 494.62 370.529C492.6 370.529 490.49 370.439 488.63 371.289C486.51 372.259 485.51 373.359 483.76 374.939C481.96 376.569 476.45 378.829 474.99 381.039C474.12 382.359 473.14 383.739 472.5 385.189C471.74 386.909 472.44 388.039 472.51 389.829C472.59 392.089 470.21 394.699 468.42 395.949C466.71 397.139 466.11 399.039 464.55 400.429C463.27 401.579 462.3 402.279 461.31 403.719C458.89 407.239 455.95 410.299 453.12 413.499C449.09 418.069 448.96 423.749 444.81 428.219C442.28 430.949 440.78 433.569 438.81 436.719C437.43 438.929 437.13 441.519 435.85 443.699C432.64 449.169 429.59 454.749 426.71 460.399C424.36 464.999 421.51 469.439 417.67 472.819C413.49 476.499 409.38 479.629 405.21 483.299C399.14 488.639 390.92 490.259 383.68 493.079C379.64 494.659 375.2 495.879 370.82 495.889C366.63 495.899 360.89 496.879 356.95 495.309C353.13 493.789 348.8 492.499 344.85 491.339C342.48 490.639 340.58 488.859 338.6 487.489C336.92 486.329 335.1 485.719 333.63 484.249C330.98 481.609 327.29 479.429 324.1 477.489C320.2 475.129 317.29 471.499 313.87 468.509C311.38 466.379 309.73 464.219 307.29 462.229Z" fill="#ECF2FF"/>
<path d="M335.63 433.669C329.1 431.269 324.65 433.969 321.81 440.339C321.8 438.319 320.88 442.919 321.22 443.769C321.63 444.789 322.38 445.559 322.98 446.449C324.15 448.199 325.37 449.889 326.35 451.739C327.07 453.089 328.48 454.059 329.23 455.439C332.03 460.609 335.55 465.439 339.07 470.159C342.15 474.289 346.26 477.249 350.26 480.349C353.56 482.909 357.69 484.459 360.66 487.409C363.09 489.829 366.43 491.909 369.92 491.899C373.83 491.889 377.71 490.869 381.48 490.869C383.13 490.869 385.15 489.899 386.7 489.349C388.42 488.729 390.44 488.339 392.07 487.569C394.08 486.609 396 485.559 398.08 484.649C399.84 483.879 402.19 482.819 403.2 481.099C403.46 480.649 404.21 480.589 404.62 480.259C405.13 479.839 405.45 479.209 405.81 478.669C406.62 477.459 408.08 477.349 408.82 476.309C409.98 474.689 411.45 473.709 412.5 471.859C413.35 470.359 415.35 469.059 415.85 467.299C416.12 466.329 417.18 465.709 417.52 464.759C417.84 463.869 418.16 463.209 418.78 462.519C419.46 461.759 419.36 460.489 419.86 459.649C420.45 458.639 420.98 457.619 421.46 456.549C422.27 454.729 423.2 453.009 423.2 450.989C423.2 449.129 423.62 447.149 421.18 447.149C418.8 447.159 416.49 447.849 414.14 448.189C412.55 448.419 411.43 449.219 409.95 449.669C407.5 450.419 404.62 450.979 402.09 451.199C397.29 451.609 392.47 451.579 387.64 451.589C384.7 451.599 381.57 451.599 378.65 451.199C375.75 450.799 373.22 449.729 370.44 448.939C368.24 448.319 366.02 447.969 363.8 447.279C361.51 446.559 359.24 445.609 357.06 444.589C352.73 442.559 348.49 440.179 344.14 438.259C341.14 436.949 338.74 434.809 335.63 433.669Z" fill="#ECF2FF"/>
<path d="M529.73 562.359C535.58 553.289 543.13 540.409 550.27 524.209C567.98 484.019 580.96 428.269 562.37 406.829C557.97 401.749 551.95 400.629 551.95 400.629C550.8 400.359 540.58 398.159 533.41 405.639C526.31 413.049 528.78 423.089 528.93 423.659" stroke="#041133" stroke-miterlimit="10" stroke-linecap="round" stroke-linejoin="round"/>
<path d="M650.961 395.019C664.611 384.339 673.571 367.889 675.151 350.639" stroke="#DDE1F0" stroke-width="2.5" stroke-miterlimit="10" stroke-linecap="round" stroke-linejoin="round"/>
<path d="M614.751 403.509L606.721 383.759L623.511 391.609L614.751 403.509Z" stroke="#041133" stroke-miterlimit="10" stroke-linecap="round" stroke-linejoin="round"/>
<path d="M619.96 413.079C625.29 412.239 628.94 407.229 628.09 401.889C627.24 396.549 622.24 392.909 616.9 393.759C611.56 394.599 607.92 399.609 608.77 404.949C609.61 410.279 614.62 413.919 619.96 413.079Z" stroke="#DDE1F0" stroke-width="2.5" stroke-miterlimit="10" stroke-linecap="round" stroke-linejoin="round"/>
<path d="M482.601 16.8993C486.961 16.2093 489.941 12.1093 489.251 7.74928C488.561 3.38928 484.461 0.409287 480.101 1.09929C475.741 1.78929 472.761 5.88928 473.451 10.2493C474.141 14.6093 478.241 17.5893 482.601 16.8993Z" stroke="#FF8A62" stroke-width="1.5" stroke-miterlimit="10" stroke-linecap="round" stroke-linejoin="round"/>
<path d="M604.51 491.879C607.6 491.389 609.71 488.489 609.22 485.389C608.73 482.299 605.83 480.189 602.73 480.679C599.64 481.169 597.53 484.069 598.02 487.169C598.52 490.259 601.42 492.369 604.51 491.879Z" fill="#FF8A62" stroke="#FF8A62" stroke-width="3.5" stroke-miterlimit="10" stroke-linecap="round" stroke-linejoin="round"/>
<path d="M344.9 270.219C348.03 270.219 350.57 267.679 350.57 264.549C350.57 261.419 348.03 258.879 344.9 258.879C341.77 258.879 339.23 261.419 339.23 264.549C339.23 267.679 341.77 270.219 344.9 270.219Z" fill="#041133" stroke="#041133" stroke-width="2" stroke-miterlimit="10" stroke-linecap="round" stroke-linejoin="round"/>
<path d="M651.091 247.549C655.491 246.849 658.491 242.729 657.791 238.329C657.091 233.929 652.971 230.929 648.571 231.629C644.171 232.329 641.171 236.449 641.871 240.849C642.571 245.249 646.691 248.249 651.091 247.549Z" fill="#ECF2FF" stroke="#ECF2FF" stroke-width="2.5" stroke-miterlimit="10" stroke-linecap="round" stroke-linejoin="round"/>
<path d="M325.891 78.2093C329.021 78.2093 331.561 75.6693 331.561 72.5393C331.561 69.4093 329.021 66.8693 325.891 66.8693C322.761 66.8693 320.221 69.4093 320.221 72.5393C320.221 75.6693 322.761 78.2093 325.891 78.2093Z" stroke="#ECF2FF" stroke-width="2.5" stroke-miterlimit="10" stroke-linecap="round" stroke-linejoin="round"/>
<path d="M483.17 20.5193C486.26 20.0293 488.69 19.0993 488.2 16.0093C487.71 12.9193 484.81 10.8093 481.71 11.2993C478.62 11.7893 476.19 12.7193 476.68 15.8093C477.18 18.8993 480.08 21.0093 483.17 20.5193Z" fill="#DDE1F0" stroke="#DDE1F0" stroke-width="2.5" stroke-miterlimit="10" stroke-linecap="round" stroke-linejoin="round"/>
<path d="M616.561 251.271C619.651 250.781 621.761 247.881 621.271 244.781C620.781 241.691 617.881 239.581 614.781 240.071C611.691 240.561 609.581 243.461 610.071 246.561C610.561 249.661 613.471 251.761 616.561 251.271Z" stroke="#FF8A62" stroke-width="3.5" stroke-miterlimit="10" stroke-linecap="round" stroke-linejoin="round"/>
<path d="M241.43 637.569C243.22 678.879 245.02 720.189 246.81 761.499H255.36C261.83 720.189 268.31 678.879 274.78 637.569" fill="#041133"/>
<path d="M241.43 637.569C243.22 678.879 245.02 720.189 246.81 761.499H255.36C261.83 720.189 268.31 678.879 274.78 637.569" stroke="#041133" stroke-width="1.5" stroke-miterlimit="10" stroke-linecap="round" stroke-linejoin="round"/>
<path d="M454.05 637.569C452.24 678.879 450.42 720.189 448.61 761.499H440.06C433.71 720.189 427.35 678.879 421 637.569" fill="#041133"/>
<path d="M454.05 637.569C452.24 678.879 450.42 720.189 448.61 761.499H440.06C433.71 720.189 427.35 678.879 421 637.569" stroke="#041133" stroke-width="1.5" stroke-miterlimit="10" stroke-linecap="round" stroke-linejoin="round"/>
<path d="M161.241 579.039C126.511 537.169 105.641 483.389 105.641 424.739C105.641 291.159 213.931 182.869 347.511 182.869C383.231 182.869 418.951 193.599 418.951 193.599C457.481 205.509 484.831 224.589 500.571 237.459" stroke="#041133" stroke-miterlimit="10" stroke-linecap="round" stroke-linejoin="round"/>
<path d="M232.87 637.769C221.47 631.619 210.62 624.579 200.41 616.749" stroke="#041133" stroke-miterlimit="10" stroke-linecap="round" stroke-linejoin="round"/>
<path d="M548.53 290.169C574.34 328.639 589.39 374.929 589.39 424.739C589.39 516.909 537.84 597.039 461.99 637.859" stroke="#041133" stroke-miterlimit="10" stroke-linecap="round" stroke-linejoin="round"/>
<path d="M488.61 246.509C484.8 252.219 481.96 258.579 480.26 265.229C479.51 268.149 478.98 271.139 477.9 273.949C476.89 276.559 475.43 278.959 473.98 281.349C471.05 286.159 468.12 290.969 465.19 295.769C465.04 296.019 464.47 296.589 464.51 297.359C464.58 298.689 466.31 299.409 467.24 300.169C468.52 301.229 469.68 303.569 468.82 309.309" stroke="#041133" stroke-miterlimit="10" stroke-linecap="round" stroke-linejoin="round"/>
<path d="M485.55 269.759C486.11 270.149 486.69 270.759 486.5 271.409C486.44 271.629 486.29 271.809 486.13 271.969C484.9 273.169 482.91 272.809 481.21 272.609C479.53 272.409 474.12 271.059 476.98 268.349C478.93 266.499 483.78 268.519 485.55 269.759Z" fill="white" stroke="#041133" stroke-miterlimit="10" stroke-linecap="round" stroke-linejoin="round"/>
<path d="M495.85 238.309C495.04 237.379 494.24 236.459 493.43 235.529C492.85 236.249 492.07 237.309 491.31 238.679C490.56 240.029 489.93 241.479 488.61 246.509C486.78 253.499 486.71 255.549 486.71 256.499C486.7 258.109 486.8 259.189 487.05 260.699C487.71 264.639 490.08 268.529 493.84 269.909C494.8 270.259 495.87 270.469 496.61 271.179C497.87 272.379 497.64 274.399 497.46 276.119C497.28 277.849 497.49 279.999 499.07 280.699C500.18 281.189 501.46 280.719 502.61 280.309C506.63 278.889 511.17 278.409 515.13 279.989C519.09 281.569 522.28 285.519 522.04 289.779C521.94 291.549 521.28 293.259 520.34 294.769C518.28 298.069 515.08 299.629 512.89 300.679C511.47 301.359 510.23 301.779 509.39 302.029C510.22 303.029 510.77 304.009 511.15 304.879C514.03 311.579 509.46 318.829 508.68 320.029C511.6 317.669 513.14 317.539 514.02 317.969C516.12 318.989 515.17 323.559 517.46 324.509C519.06 325.169 520.45 323.339 521.71 324.169C523.16 325.119 522.11 328.099 523.76 329.199C524.44 329.649 525.27 329.589 525.75 329.499C532.73 323.229 537.14 317.039 539.81 312.659C542.87 307.639 544.54 303.519 545.03 302.279C547.52 295.979 548.58 290.379 549.08 286.329C549.91 286.709 550.74 287.099 551.58 287.479C550.92 282.389 550.05 277.069 548.93 271.549C548.47 269.259 547.97 267.029 547.46 264.839C548.19 264.739 548.93 264.639 549.66 264.529C548.44 262.369 546.64 259.359 544.23 255.929C539.3 248.899 536.75 245.259 532.63 242.259C524.31 236.189 514.08 236.649 506.85 236.899C502.23 237.069 498.44 237.739 495.85 238.309Z" stroke="#041133" stroke-miterlimit="10" stroke-linecap="round" stroke-linejoin="round"/>
<path d="M472.201 311.209C473.261 312.109 473.731 312.909 475.401 314.249C475.881 314.629 476.341 314.959 476.841 315.299C479.301 316.989 482.651 317.159 485.391 315.969C488.131 314.779 490.241 312.349 491.291 309.559C491.971 307.759 492.241 305.819 493.101 304.099C493.961 302.379 495.651 300.849 497.571 301.039C499.541 301.229 500.901 303.089 501.721 304.899C504.571 311.159 504.101 318.429 502.761 325.179C501.891 329.549 500.651 333.899 498.401 337.739C497.651 339.019 496.771 340.259 495.611 341.189C494.351 342.189 492.831 342.779 491.331 343.359C488.341 344.519 485.301 345.679 482.111 345.989C477.951 346.389 473.801 345.299 469.841 343.959C465.531 342.489 461.181 340.579 458.201 337.139C456.901 335.629 455.901 333.859 455.291 331.959C454.641 329.949 454.451 327.669 455.421 325.799C457.151 322.489 458.741 322.639 461.331 318.789C464.411 314.229 463.731 310.209 466.541 309.299C467.411 309.019 468.251 309.159 468.811 309.319C470.421 309.869 471.501 310.609 472.201 311.209Z" stroke="#041133" stroke-miterlimit="10" stroke-linecap="round" stroke-linejoin="round"/>
<path d="M487.17 286.549C487.94 281.179 483.81 277.149 483.57 276.939C482.22 275.729 480.54 274.939 478.85 274.299C478.42 274.139 476.28 273.669 474.98 274.139C470.24 275.849 469.13 293.589 474.78 296.009C478.48 297.589 486.23 293.149 487.17 286.549Z" stroke="#041133" stroke-miterlimit="10" stroke-linecap="round" stroke-linejoin="round"/>
<path d="M475.93 287.369C476.35 288.829 476.77 290.289 477.19 291.759" stroke="#041133" stroke-width="2" stroke-miterlimit="10" stroke-linecap="round" stroke-linejoin="round"/>
<path d="M505.83 295.069C507.06 294.369 507.53 292.609 506.82 291.389C506.11 290.169 504.35 289.709 503.13 290.419C502.66 289.679 502.91 288.719 503.24 287.909C503.76 286.659 504.48 285.459 505.5 284.569C506.52 283.679 507.88 283.119 509.23 283.229C510.19 283.309 511.1 283.719 511.92 284.229C512.67 284.699 513.391 285.269 513.781 286.069C514.461 287.459 513.96 289.109 513.46 290.569" stroke="#041133" stroke-miterlimit="10" stroke-linecap="round" stroke-linejoin="round"/>
<path d="M523.76 329.199C520.93 343.279 521.84 358.089 526.36 371.719" stroke="#041133" stroke-miterlimit="10" stroke-linecap="round" stroke-linejoin="round"/>
<path d="M485.24 345.349C487.46 347.189 489.33 349.439 490.72 351.959C492.62 355.379 493.62 359.219 494.55 363.029C494.92 364.549 495.78 366.079 496.93 367.129C497.94 368.049 499.21 368.629 500.47 369.149C505.13 371.089 509.99 372.529 514.95 373.459C518.84 374.189 523.27 374.469 526.35 371.989" stroke="#041133" stroke-miterlimit="10" stroke-linecap="round" stroke-linejoin="round"/>
<path d="M531.521 294.959C530.111 298.289 528.231 301.459 527.381 304.969C526.531 308.489 526.921 312.589 529.521 315.109" stroke="#041133" stroke-miterlimit="10" stroke-linecap="round" stroke-linejoin="round"/>
<path d="M532.939 303.149C531.399 305.279 531.739 308.539 533.679 310.299" stroke="#041133" stroke-miterlimit="10" stroke-linecap="round" stroke-linejoin="round"/>
<path d="M503.549 380.089C484.389 378.829 466.859 391.179 454.149 405.559C442.579 418.639 433.539 433.739 425.259 449.109C419.539 459.719 413.969 470.759 405.069 478.899C386.719 495.699 356.409 495.759 336.049 481.449C328.129 475.879 321.629 468.569 314.439 462.089C312.359 460.219 310.029 458.329 307.249 458.079C303.229 457.719 299.829 460.829 297.009 463.719C294.619 466.159 292.059 469.029 292.239 472.449C292.319 473.999 292.979 475.449 293.649 476.849C306.519 503.799 328.269 526.429 354.699 540.339C363.239 544.839 372.299 548.459 381.769 550.389C403.549 554.829 426.599 549.939 446.189 539.459" stroke="#041133" stroke-miterlimit="10" stroke-linecap="round" stroke-linejoin="round"/>
<path d="M494.789 364.729C476.109 371.359 461.239 386.229 455.789 403.729" stroke="#041133" stroke-miterlimit="10" stroke-linecap="round" stroke-linejoin="round"/>
<path d="M581.971 369.929C570.381 366.379 558.251 362.789 546.311 364.879C533.031 367.199 521.731 376.419 514.091 387.519C506.451 398.619 501.971 411.559 497.881 424.399C493.611 437.789 489.651 451.269 486.001 464.839C479.121 490.419 473.811 515.829 459.881 538.359" stroke="#041133" stroke-miterlimit="10" stroke-linecap="round" stroke-linejoin="round"/>
<path d="M111.92 369.929C123.51 366.379 135.64 362.789 147.58 364.879C160.86 367.199 172.16 376.419 179.8 387.519C187.44 398.619 191.92 411.559 196.01 424.399C200.28 437.789 204.24 451.269 207.89 464.839C209.46 470.679 210.95 476.509 212.48 482.299" stroke="#041133" stroke-miterlimit="10" stroke-linecap="round" stroke-linejoin="round"/>
<path d="M446.75 539.599C453.9 537.189 461.89 538.029 468.86 540.919C475.83 543.809 481.86 548.619 487.1 554.049C499.21 566.619 507.28 582.469 514.63 598.299" stroke="#041133" stroke-miterlimit="10" stroke-linecap="round" stroke-linejoin="round"/>
<path d="M309.359 504.009C285.319 500.319 260.809 499.669 236.599 502.079C226.489 503.089 216.139 504.729 207.429 509.939C199.099 514.919 192.889 522.819 188.099 531.249C179.339 546.679 174.869 564.109 170.489 581.299C160.359 621.059 150.209 660.949 145.049 701.649C144.919 702.649 144.809 703.719 145.309 704.599C145.779 705.439 146.709 705.909 147.589 706.319C156.279 710.359 165.439 713.399 174.829 715.349C183.969 667.659 195.029 629.219 204.129 601.399C214.299 570.319 220.769 556.369 234.389 550.769C238.189 549.209 243.419 547.929 298.229 553.229C314.919 554.839 314.429 554.959 319.469 555.339C335.779 556.559 359.509 556.719 389.609 551.219" stroke="#041133" stroke-miterlimit="10" stroke-linecap="round" stroke-linejoin="round"/>
<path d="M232.53 480.569C228.32 479.879 221.78 479.119 214.51 481.669C203.65 485.469 197.09 494.359 191.95 503.379C183.02 519.049 176.08 535.609 170.09 552.599C161 578.379 153.45 604.029 143.41 638.399C141.39 645.319 139.74 651.019 138.66 654.759C139.25 655.869 140.88 658.589 144.25 660.439C147.26 662.099 150.09 662.179 151.36 662.149" stroke="#041133" stroke-miterlimit="10" stroke-linecap="round" stroke-linejoin="round"/>
<path d="M298.73 487.629C277.77 485.439 256.81 483.249 235.85 481.059C225.35 445.339 214.85 409.619 204.36 373.889C203.3 374.059 202.24 374.229 201.18 374.399C211.99 411.009 222.81 447.619 233.62 484.239C256.29 486.609 278.96 488.979 301.63 491.349" fill="#041133"/>
<path d="M298.73 487.629C277.77 485.439 256.81 483.249 235.85 481.059C225.35 445.339 214.85 409.619 204.36 373.889C203.3 374.059 202.24 374.229 201.18 374.399C211.99 411.009 222.81 447.619 233.62 484.239C256.29 486.609 278.96 488.979 301.63 491.349" stroke="#041133" stroke-miterlimit="10" stroke-linecap="round" stroke-linejoin="round"/>
<path d="M432.001 435.659C401.741 453.779 359.901 449.809 333.581 426.319C331.411 428.059 329.331 429.889 327.331 431.819C324.841 434.229 323.151 435.479 321.611 437.879C320.951 438.899 320.501 439.799 320.221 440.409C321.061 442.839 322.041 445.299 323.181 447.769C333.681 470.649 352.691 484.189 366.761 491.769" stroke="#041133" stroke-miterlimit="10" stroke-linecap="round" stroke-linejoin="round"/>
<path d="M541.529 589.949L543.189 609.539L560.449 606.879L558.789 587.509L541.529 589.949Z" fill="#ECF2FF" stroke="#ECF2FF" stroke-width="2.5" stroke-miterlimit="10" stroke-linecap="round" stroke-linejoin="round"/>
<path d="M606.729 487.599L598.699 467.849L615.489 475.699L606.729 487.599Z" stroke="#041133" stroke-miterlimit="10" stroke-linecap="round" stroke-linejoin="round"/>
<path d="M277.52 329.209C280.65 329.209 283.19 326.669 283.19 323.539C283.19 320.409 280.65 317.869 277.52 317.869C274.39 317.869 271.85 320.409 271.85 323.539C271.85 326.669 274.39 329.209 277.52 329.209Z" stroke="#041133" stroke-miterlimit="10" stroke-linecap="round" stroke-linejoin="round"/>
<path d="M364.26 270.209C370.81 270.209 376.11 264.909 376.11 258.359C376.11 251.819 370.81 246.509 364.26 246.509C357.72 246.509 352.41 251.819 352.41 258.359C352.41 264.909 357.71 270.209 364.26 270.209Z" stroke="#ECF2FF" stroke-miterlimit="10" stroke-linecap="round" stroke-linejoin="round"/>
<path d="M487.07 282.349C490.93 281.829 494.77 281.119 498.57 280.239" stroke="#041133" stroke-miterlimit="10" stroke-linecap="round" stroke-linejoin="round"/>
<path d="M471.23 274.759C472.08 275.209 472.92 275.649 473.77 276.099" stroke="#041133" stroke-miterlimit="10" stroke-linecap="round" stroke-linejoin="round"/>
<path d="M459.9 327.629C459.76 330.479 460.7 333.359 462.49 335.579" stroke="#041133" stroke-miterlimit="10" stroke-linecap="round" stroke-linejoin="round"/>
<path d="M463.84 330.939C465.11 333.349 466.76 335.559 468.7 337.469" stroke="#041133" stroke-miterlimit="10" stroke-linecap="round" stroke-linejoin="round"/>
<path d="M466.529 316.669C468.109 317.879 469.879 318.839 471.749 319.519" stroke="#041133" stroke-miterlimit="10" stroke-linecap="round" stroke-linejoin="round"/>
<path d="M245.369 727.259H236.809L232.869 637.569H462.529" stroke="#041133" stroke-miterlimit="10" stroke-linecap="round" stroke-linejoin="round"/>
<path d="M462.551 637.569L458.611 727.259H450.061" stroke="#041133" stroke-miterlimit="10" stroke-linecap="round" stroke-linejoin="round"/>
<path d="M165.601 552.359C159.751 543.289 152.201 530.409 145.061 514.209C127.351 474.019 114.371 418.269 132.961 396.829C137.361 391.749 143.381 390.629 143.381 390.629C144.531 390.359 154.751 388.159 161.921 395.639C169.021 403.049 166.551 413.089 166.401 413.659" stroke="#041133" stroke-miterlimit="10" stroke-linecap="round" stroke-linejoin="round"/>
<path d="M12.4999 225.229C8.99989 251.229 25.4999 285.729 56.9999 298.729" stroke="#DDE1F0" stroke-width="2.5" stroke-miterlimit="10" stroke-linecap="round" stroke-linejoin="round"/>
<path d="M503.441 47.0893C520.171 51.9093 536.251 58.8993 551.441 67.4193C619.491 105.629 667.461 174.649 688.471 249.819C698.561 285.919 700.281 320.93 688.471 356.5C678.871 385.41 650.07 414.859 624 430.599C570.5 460.5 515.911 458.509 485.851 453.549C472.271 451.309 458.541 446.549 448.931 436.699C439.321 426.849 434.971 410.989 441.461 398.849C443.691 394.679 447.211 391.049 451.671 389.469C461.151 386.109 471.771 393.229 475.851 402.429C482.471 417.309 473.421 436.489 463.881 446.839C445.531 466.739 417.581 464.969 411.751 464.599C376.641 462.369 355.681 435.429 352.061 430.599" stroke="#FF8A62" stroke-width="4.5" stroke-miterlimit="10" stroke-linecap="round" stroke-linejoin="round"/>
<path d="M2 239.729C3.61 254.789 8.5 273.729 21.03 283.639" stroke="#DDE1F0" stroke-width="2.5" stroke-miterlimit="10" stroke-linecap="round" stroke-linejoin="round"/>
<path d="M623.241 107.369C614.401 97.4393 602.201 85.6293 586.071 74.4793C574.041 66.1593 562.551 60.0993 552.641 55.6693" stroke="#DDE1F0" stroke-width="2.5" stroke-miterlimit="10" stroke-linecap="round" stroke-linejoin="round"/>
<path d="M597.71 749.249H513.41V762.179H597.71V749.249Z" fill="white" stroke="#041133" stroke-miterlimit="10" stroke-linecap="round" stroke-linejoin="round"/>
<path d="M590.88 727.689H506.58V740.619H590.88V727.689Z" fill="white" stroke="#041133" stroke-miterlimit="10" stroke-linecap="round" stroke-linejoin="round"/>
<path d="M595.24 719.669H516.9V727.689H595.24V719.669Z" fill="#041133" stroke="#041133" stroke-miterlimit="10" stroke-linecap="round" stroke-linejoin="round"/>
<path d="M587.901 695.749H509.561V711.649H587.901V695.749Z" fill="white" stroke="#041133" stroke-miterlimit="10" stroke-linecap="round" stroke-linejoin="round"/>
<path d="M599.08 711.649H512.33V719.669H599.08V711.649Z" fill="white" stroke="#041133" stroke-miterlimit="10" stroke-linecap="round" stroke-linejoin="round"/>
<path d="M609.08 687.729H522.33V695.749H609.08V687.729Z" fill="white" stroke="#041133" stroke-miterlimit="10" stroke-linecap="round" stroke-linejoin="round"/>
<path d="M601.189 740.629H500.789V749.259H601.189V740.629Z" fill="#041133" stroke="#041133" stroke-miterlimit="10" stroke-linecap="round" stroke-linejoin="round"/>
<path d="M516.289 704.229H522.289" stroke="#041133" stroke-linecap="round" stroke-linejoin="round"/>
<path d="M517.289 755.229H523.289" stroke="#041133" stroke-linecap="round" stroke-linejoin="round"/>
<path d="M517.289 758.229H523.289" stroke="#041133" stroke-linecap="round" stroke-linejoin="round"/>
<path d="M514.75 734.149C516.18 733.139 517.83 731.329 519.54 732.669C520.14 733.139 520.42 733.909 521.23 734.079C522.3 734.299 524.1 733.239 524.94 733.989C525.37 734.379 525.75 734.839 526.17 735.239C526.77 735.809 527.05 735.229 527.51 734.739C528.14 734.049 528.24 734.239 528.83 734.879C529.39 735.489 529.82 735.799 530.47 735.079C531.21 734.249 531.78 731.079 533.29 732.429C534.14 733.189 534.55 734.429 535.62 734.979C536.51 735.439 537.48 733.769 537.9 733.249C538.54 732.459 538.69 732.089 539.24 733.049C539.65 733.779 540.08 734.749 541.09 734.619C542 734.499 542.46 733.269 543.39 733.439C544.24 733.599 545.04 734.199 545.87 734.469" stroke="#041133" stroke-linecap="round" stroke-linejoin="round"/>
<path d="M557.73 735.109C558.54 734.299 559.401 733.399 560.581 733.169C561.161 733.059 561.351 733.619 561.651 733.989C562.421 734.929 563.05 735.419 563.98 734.439C564.4 733.989 565.08 733.059 565.81 733.499C566.68 734.009 567.4 734.709 568.36 733.859C568.95 733.339 569.291 731.739 570.281 732.809C570.871 733.449 571.37 734.689 572.42 734.639C573.16 734.609 573.87 733.419 574.47 733.549C575.44 733.759 576.32 734.499 577.29 734.799" stroke="#041133" stroke-linecap="round" stroke-linejoin="round"/>
<path d="M529.789 702.729C530.619 703.939 531.499 705.289 532.699 705.629C533.299 705.799 533.479 704.959 533.789 704.409C534.579 703.009 535.219 702.269 536.179 703.739C536.609 704.409 537.299 705.799 538.059 705.149C538.949 704.379 539.689 703.349 540.659 704.619C541.259 705.399 541.609 707.789 542.629 706.189C543.229 705.239 543.739 703.389 544.809 703.449C545.569 703.489 546.289 705.269 546.909 705.069C547.899 704.759 548.799 703.649 549.789 703.209" stroke="#041133" stroke-linecap="round" stroke-linejoin="round"/>
<path d="M604.349 693.409C603.539 692.599 602.679 691.699 601.499 691.469C600.919 691.359 600.729 691.919 600.429 692.289C599.659 693.229 599.029 693.719 598.099 692.739C597.669 692.289 596.999 691.359 596.259 691.799C595.389 692.309 594.669 693.009 593.709 692.159C593.119 691.629 592.779 690.039 591.789 691.109C591.199 691.749 590.699 692.989 589.649 692.949C588.909 692.919 588.199 691.729 587.599 691.859C586.629 692.069 585.749 692.809 584.779 693.109" stroke="#041133" stroke-linecap="round" stroke-linejoin="round"/>
<path d="M330.07 428.629C328.54 427.029 327.15 425.309 325.91 423.479C324.96 422.079 324.11 420.629 323.19 419.219C319.21 413.119 314.04 407.859 308.44 403.199C307.03 402.029 305.56 400.869 303.82 400.279C300 398.979 295.88 400.669 292.21 402.329C290.46 403.119 288.65 403.949 287.35 405.369C288.99 406.639 291.32 405.969 293.33 405.489C295.77 404.909 298.3 404.679 300.8 404.829C301.09 404.849 301.37 404.929 301.74 405.029C304.26 405.719 305.39 407.319 308.8 411.359C311.51 414.559 311.99 414.969 312.4 416.299C313.07 418.499 312.82 420.939 312.17 421.109C311.85 421.199 311.61 420.669 309.88 418.899C309.44 418.449 309.06 418.079 308.29 417.339C307.99 417.049 306.99 416.089 305.4 414.719C303.04 412.679 301.47 411.539 299.67 410.699C299.16 410.459 298.39 410.139 297.56 410.389C296.97 410.569 296.22 411.069 296.13 411.779C296.07 412.229 296.29 412.589 296.63 413.129C297.2 414.049 297.85 414.599 297.92 414.659C300.07 416.479 301.7 418.099 302.41 418.839C303.11 419.559 303.46 419.929 303.75 420.409C304.56 421.709 304.5 422.639 304.96 424.049C305.33 425.199 305.79 425.899 306.71 427.299C307.55 428.579 310.39 432.909 315.66 434.949C317.9 435.819 318.03 435.279 320.24 436.279C320.73 436.499 321.19 436.739 321.64 436.999" stroke="#041133" stroke-miterlimit="10" stroke-linecap="round" stroke-linejoin="round"/>
<path d="M293.34 405.499C290.41 408.799 288.25 411.339 287.56 412.289C287.38 412.539 287.08 412.989 287.22 413.389C287.37 413.819 287.96 413.959 288.1 413.999C289.42 414.329 290.84 412.649 293.28 410.739C295.52 408.989 296.64 408.109 298.03 407.879C299.47 407.639 300.8 407.939 303.48 408.619C305.21 409.059 306.62 409.539 307.58 409.899" stroke="#041133" stroke-miterlimit="10" stroke-linecap="round" stroke-linejoin="round"/>
<path d="M310.67 413.559C309.01 412.659 306.69 411.649 303.8 411.059C302.14 410.719 300.63 410.589 299.34 410.569" stroke="#041133" stroke-miterlimit="10" stroke-linecap="round" stroke-linejoin="round"/>
<path d="M296.27 412.489C294.37 414.759 292.07 417.259 291.35 416.819C291.26 416.759 291.1 416.609 291.15 415.769C291.28 413.319 292.79 411.389 293.69 410.409" stroke="#041133" stroke-miterlimit="10" stroke-linecap="round" stroke-linejoin="round"/>
<path d="M292.03 470.099C287.12 467.529 282.94 466.099 279.93 465.269C276.63 464.349 272.87 463.589 268.2 461.019C267.02 460.369 265.82 459.589 264.56 458.619C262.66 457.149 259.81 454.819 258.36 450.889C257.19 447.719 257.43 444.759 257.8 442.849" stroke="#041133" stroke-miterlimit="10" stroke-linecap="round" stroke-linejoin="round"/>
<path d="M302.98 459.059C301.74 458.219 299.99 456.859 298.37 454.809C295.98 451.779 296.2 450.099 294.16 446.599C292.21 443.269 289.43 440.519 286.68 437.809C284.42 435.579 282.16 433.359 279.9 431.129C279.64 430.869 279.35 430.599 278.99 430.569C278.31 430.509 277.88 431.779 277.75 432.119C276.81 434.659 282.66 441.399 284.23 443.169" stroke="#041133" stroke-miterlimit="10" stroke-linecap="round" stroke-linejoin="round"/>
<path d="M269.101 456.989C267.991 456.139 267.091 455.439 266.471 454.969C264.531 453.469 264.431 453.339 263.911 453.019C263.091 452.519 262.221 452.069 261.521 451.409C261.501 451.389 261.471 451.359 261.441 451.329C261.441 451.329 260.541 450.449 259.901 449.139C259.441 448.189 257.761 443.159 255.891 436.139" stroke="#041133" stroke-miterlimit="10" stroke-linecap="round" stroke-linejoin="round"/>
<path d="M287.001 445.599C283.401 445.059 279.781 444.519 276.361 443.299C273.821 442.389 271.911 441.389 271.181 441.009C269.241 439.979 265.131 437.609 259.831 434.169C258.911 433.569 257.051 432.349 255.671 432.999C255.531 433.059 254.911 433.379 254.771 433.969C254.641 434.509 254.911 435.189 255.911 436.139C258.441 438.559 271.831 448.619 272.441 449.079" stroke="#041133" stroke-miterlimit="10" stroke-linecap="round" stroke-linejoin="round"/>
<path d="M279.84 444.189C281.08 443.949 282.2 443.139 282.83 442.029C282.78 442.079 282.72 442.119 282.67 442.169" stroke="#041133" stroke-miterlimit="10" stroke-linecap="round" stroke-linejoin="round"/>
<path d="M270.061 453.159C269.021 452.219 267.491 450.819 265.681 449.079C263.171 446.649 262.651 446.009 262.381 445.669C261.411 444.409 260.111 442.319 259.371 439.089" stroke="#041133" stroke-miterlimit="10" stroke-linecap="round" stroke-linejoin="round"/>
<path d="M257.061 432.859C257.021 432.719 256.741 431.789 257.281 431.049C257.881 430.219 259.061 430.219 259.761 430.459C260.381 430.659 260.801 431.109 261.641 432.519C262.201 433.469 262.911 434.789 263.581 436.449" stroke="#041133" stroke-miterlimit="10" stroke-linecap="round" stroke-linejoin="round"/>
<path d="M293.201 467.809C292.511 467.549 291.991 466.929 291.681 466.259C290.771 464.299 291.501 461.729 293.301 460.549C295.101 459.369 297.761 459.719 299.191 461.329" stroke="#041133" stroke-miterlimit="10" stroke-linecap="round" stroke-linejoin="round"/>
<path d="M289.211 468.549C289.931 467.719 290.631 466.859 291.291 465.979" stroke="#041133" stroke-miterlimit="10" stroke-linecap="round" stroke-linejoin="round"/>
<path d="M297.131 459.489C298.061 458.509 299.001 457.519 299.931 456.539" stroke="#041133" stroke-miterlimit="10" stroke-linecap="round" stroke-linejoin="round"/>
<path d="M291.631 463.189C292.851 463.409 294.071 463.619 295.291 463.839C295.411 463.239 295.641 462.469 295.761 461.869" stroke="#041133" stroke-miterlimit="10" stroke-linecap="round" stroke-linejoin="round"/>
<path d="M603.636 698.232L596.838 699.727L610.641 762.489L617.439 760.994L603.636 698.232Z" fill="white" stroke="#041133" stroke-miterlimit="10" stroke-linecap="round" stroke-linejoin="round"/>
<path d="M598.689 702.549C599.079 702.249 599.499 701.969 599.979 701.869C600.459 701.759 601.009 701.859 601.339 702.219C601.849 702.769 601.679 703.649 601.349 704.319C601.029 704.989 600.569 705.649 600.579 706.389C600.599 707.329 601.529 708.149 602.469 708.049C602.829 708.009 603.199 707.859 603.539 707.989C603.939 708.149 604.099 708.669 603.989 709.089C603.879 709.509 603.589 709.849 603.299 710.169" stroke="#041133" stroke-miterlimit="10" stroke-linecap="round" stroke-linejoin="round"/>
<path d="M608.009 742.919C607.949 742.509 608.419 742.169 608.829 742.219C609.239 742.269 609.569 742.599 609.779 742.959C609.949 743.249 610.079 743.589 610.019 743.919C609.949 744.369 609.589 744.699 609.299 745.059C609.009 745.409 608.779 745.909 609.009 746.309C609.309 746.839 610.099 746.709 610.669 746.509" stroke="#041133" stroke-miterlimit="10" stroke-linecap="round" stroke-linejoin="round"/>
<path d="M610.551 749.869C611.031 749.619 611.511 749.379 611.981 749.129" stroke="#041133" stroke-miterlimit="10" stroke-linecap="round" stroke-linejoin="round"/>
<path d="M82.5705 726.459C82.7005 725.649 83.0905 724.429 84.3105 723.659C85.5805 722.869 87.1406 722.929 90.4806 723.299C97.0606 724.039 98.4505 724.639 101.641 724.689C103.381 724.719 105.051 724.459 108.301 723.929C114.671 722.899 117.441 721.939 122.111 720.969C131.581 719.009 130.431 720.039 131.961 719.479C132.251 719.369 133.201 719.009 134.291 719.279C135.441 719.559 136.141 720.399 136.441 720.749C137.901 722.449 139.931 723.799 141.501 725.429C144.601 728.639 149.411 730.019 150.971 730.459C155.491 731.749 156.891 730.619 165.491 731.629C167.801 731.899 169.671 732.209 170.851 732.419C171.271 734.939 171.281 737.049 171.171 738.639C171.041 740.609 170.771 744.099 168.801 747.739C168.341 748.589 168.141 748.799 167.621 749.849C166.491 752.139 165.961 754.159 165.701 755.519C162.201 755.029 158.391 754.369 154.341 753.489C149.491 752.439 145.081 751.239 141.151 750.009C140.941 749.549 140.561 748.889 139.871 748.239C136.901 745.419 131.241 745.639 129.401 745.669C123.551 745.759 117.261 744.119 104.681 740.849C98.8105 739.319 90.6705 736.189 81.5605 728.999C81.9005 728.149 82.2405 727.309 82.5705 726.459Z" stroke="#041133" stroke-miterlimit="10" stroke-linecap="round" stroke-linejoin="round"/>
<path d="M82.5703 726.459C85.3103 728.809 89.7103 732.119 95.8803 734.939C101.64 737.569 106.45 738.629 114.15 740.279C115.03 740.469 127 742.929 132.54 743.199C133.03 743.219 134.71 743.289 136.9 743.779C138.87 744.219 140.29 744.779 140.8 744.979C142.61 745.689 151.22 749.049 158.86 749.899C160.83 750.119 163.86 750.299 167.64 749.829" stroke="#041133" stroke-miterlimit="10" stroke-linecap="round" stroke-linejoin="round"/>
<path d="M169.75 732.219C169.39 729.229 169.18 725.759 169.3 721.909C169.39 719.079 169.66 716.489 170.01 714.159" stroke="#041133" stroke-miterlimit="10" stroke-linecap="round" stroke-linejoin="round"/>
<path d="M136.449 720.739C137.689 721.009 141.119 721.559 144.209 719.629C146.199 718.389 147.169 716.639 148.299 714.599C149.799 711.899 150.459 709.409 150.769 707.749" stroke="#041133" stroke-miterlimit="10" stroke-linecap="round" stroke-linejoin="round"/>
<path d="M160.911 723.519C160.881 723.329 160.381 720.239 157.441 718.939C154.441 717.609 151.761 719.429 151.631 719.519" stroke="#041133" stroke-miterlimit="10" stroke-linecap="round" stroke-linejoin="round"/>
<path d="M144.94 702.739C142.04 701.719 138.91 700.519 135.62 699.099C131.54 697.329 127.87 695.509 124.62 693.759C124.51 693.319 124.29 692.669 123.8 691.979C121.68 688.989 116.66 688.199 115.04 687.909C109.88 686.979 104.63 684.449 94.1296 679.389C89.2296 677.029 82.6196 672.859 75.8496 664.969C76.2896 664.279 76.7296 663.599 77.1696 662.909C77.4296 662.219 77.9696 661.209 79.1896 660.749C80.4396 660.269 81.8096 660.599 84.6796 661.499C90.3396 663.289 91.4596 664.059 94.2496 664.649C95.7796 664.979 97.2896 665.029 100.24 665.139C106.02 665.339 108.62 664.969 112.9 664.929C121.56 664.839 120.38 665.549 121.82 665.329C122.09 665.289 122.99 665.129 123.9 665.549C124.86 665.999 125.34 666.859 125.54 667.209C126.53 668.949 128.08 670.489 129.18 672.199C131.35 675.559 135.34 677.609 136.64 678.269C140.16 680.069 141.64 679.519 147.92 681.409" stroke="#041133" stroke-miterlimit="10" stroke-linecap="round" stroke-linejoin="round"/>
<path d="M77.1797 662.899C79.1797 665.439 82.4697 669.109 87.4097 672.659C92.0197 675.969 96.0697 677.739 102.55 680.519C103.29 680.839 113.39 685.069 118.22 686.279C118.65 686.389 120.12 686.739 121.96 687.549C123.62 688.279 124.76 689.019 125.18 689.279C125.39 689.419 125.72 689.629 126.15 689.889C134.02 694.779 140.2 696.729 140.2 696.729C141.42 697.099 143.24 697.579 145.53 697.939" stroke="#041133" stroke-miterlimit="10" stroke-linecap="round" stroke-linejoin="round"/>
<path d="M125.551 667.199C126.601 667.649 129.521 668.729 132.561 667.569C134.521 666.819 135.681 665.449 137.031 663.849C138.821 661.729 139.831 659.659 140.391 658.249" stroke="#041133" stroke-miterlimit="10" stroke-linecap="round" stroke-linejoin="round"/>
<path d="M146.579 673.879C146.589 673.709 146.679 670.899 144.319 669.249C141.909 667.559 139.239 668.699 139.109 668.759" stroke="#041133" stroke-miterlimit="10" stroke-linecap="round" stroke-linejoin="round"/>
</svg>
