<svg width="97" height="96" viewBox="0 0 97 96" fill="none" xmlns="http://www.w3.org/2000/svg">
<g clip-path="url(#clip0)">
<path d="M71.5077 0C62.6498 0 55.0861 5.5395 52.0938 13.3425C52.3527 13.1389 52.6141 12.9028 52.8788 12.6315C55.3623 19.4601 55.7453 25.4617 54.0291 32.0272C57.7289 37.761 64.1747 41.5573 71.5077 41.5573C82.9866 41.5573 92.2922 32.2543 92.2922 20.7787C92.2922 9.30319 82.9868 0 71.5077 0V0Z" fill="#F9B9DE"/>
<path d="M74.1587 20.7785L77.6297 17.3075C78.3619 16.5753 78.3619 15.3881 77.6297 14.6557C76.8974 13.9237 75.7105 13.9237 74.9779 14.6557L71.5069 18.1267L68.0359 14.6557C67.3035 13.9237 66.1167 13.9237 65.3841 14.6557C64.6519 15.3879 64.6519 16.5751 65.3841 17.3075L68.8551 20.7785L65.3841 24.2495C64.6519 24.9817 64.6519 26.169 65.3841 26.9013C65.7503 27.2673 66.2301 27.4505 66.7099 27.4505C67.1897 27.4505 67.6695 27.2673 68.0357 26.9013L71.5067 23.4303L74.9777 26.9013C75.3439 27.2673 75.8237 27.4505 76.3036 27.4505C76.7834 27.4505 77.2632 27.2673 77.6294 26.9013C78.3616 26.1691 78.3616 24.9819 77.6294 24.2495L74.1587 20.7785Z" fill="white"/>
<path d="M26.6198 40.2505C26.6198 39.2149 25.7802 38.3755 24.7448 38.3755H23.7061C22.6707 38.3755 21.8311 39.2149 21.8311 40.2505C21.8311 40.9855 22.2541 41.6217 22.8698 41.9292V43.1879C22.8698 44.2234 23.7094 45.0629 24.7448 45.0629C25.7802 45.0629 26.6198 44.2234 26.6198 43.1879V40.2505Z" fill="#DAD8E9"/>
<path d="M41.4453 45.0629C42.4807 45.0629 43.3203 44.2235 43.3203 43.1879V41.9292C43.9359 41.6219 44.3589 40.9855 44.3589 40.2507C44.3589 39.2152 43.5193 38.3757 42.4839 38.3757H41.4453C40.4099 38.3757 39.5703 39.2152 39.5703 40.2507V43.1881C39.5703 44.2235 40.4099 45.0629 41.4453 45.0629Z" fill="#DAD8E9"/>
<path d="M36.4268 55.0438C36.793 55.4105 37.2734 55.5939 37.7536 55.5939C38.233 55.5939 38.7124 55.4111 39.0784 55.0456C39.811 54.3138 39.8119 53.1268 39.0803 52.3938C37.4815 50.7928 35.3555 49.9111 33.094 49.9111C30.8326 49.9111 28.7067 50.7929 27.1077 52.3938C26.3761 53.1266 26.377 54.3138 27.1096 55.0456C27.8423 55.7773 29.0296 55.7765 29.7614 55.0438C30.6516 54.1522 31.8353 53.6611 33.094 53.6611C34.3527 53.6611 35.5366 54.1522 36.4268 55.0438Z" fill="#DAD8E9"/>
<path d="M48.9237 68.4097H42.5292C41.7818 68.4097 40.3906 68.4097 39.7219 68.1164C39.5247 68.03 39.369 67.9617 39.369 67.294V64.5528C45.0038 64.2204 48.8965 62.3352 51.2374 58.8175C53.2096 55.8535 53.7419 52.1129 53.8602 48.5896C56.296 48.1852 58.4027 46.0338 58.6722 43.574C58.8501 41.9495 58.3306 40.324 57.2462 39.1145C56.452 38.2283 55.4057 37.6188 54.2648 37.3559L54.6136 36.403C57.7442 27.8487 57.7521 20.5478 54.6402 11.9905C54.4199 11.3845 53.9035 10.9343 53.2733 10.7984C52.6433 10.6627 51.9871 10.8601 51.5365 11.3215C49.6343 13.27 48.5423 12.8549 44.2896 10.064C42.8027 9.08822 41.1177 7.98234 39.1394 7.00341C35.1452 5.02678 31.695 4.53309 28.8848 5.53622C26.6432 6.33647 24.8528 8.09559 23.707 10.624C22.827 12.5656 20.8253 13.7367 18.7302 13.5382C18.6276 13.5284 18.5264 13.5271 18.4259 13.5342C13.0506 12.8052 10.8154 15.7743 9.95703 17.6382C8.57366 20.6418 8.53297 25.2068 9.83628 31.2068C10.3279 33.4705 10.9183 35.4892 11.3273 36.7842C11.4049 37.03 11.4762 37.2547 11.5422 37.4604C9.40578 38.1252 7.75391 40.0479 7.51391 42.3189C7.34272 43.9392 7.86622 45.5592 8.95016 46.7635C9.83516 47.7468 11.0308 48.3879 12.3212 48.5905C12.4127 52.022 12.8517 55.6801 14.7578 58.669C17.0648 62.2867 21.021 64.2209 26.8195 64.5541V67.2939C26.8195 67.9615 26.6639 68.0298 26.4666 68.1162C25.798 68.4095 24.4067 68.4095 23.6592 68.4095H17.2652C10.3407 68.4095 4.70703 74.0497 4.70703 80.9823V94.1249C4.70703 95.1605 5.54666 95.9999 6.58203 95.9999H59.6067C60.6421 95.9999 61.4817 95.1605 61.4817 94.1249V80.9823C61.4817 74.0497 55.8481 68.4097 48.9237 68.4097ZM13.8784 18.3563C14.1876 17.9699 15.1288 16.7935 18.1868 17.2897C18.3775 17.3206 18.567 17.3228 18.7512 17.2988C22.2975 17.4807 25.6343 15.4565 27.1227 12.172C27.849 10.5691 28.8662 9.52472 30.1455 9.06797C31.9619 8.41978 34.4282 8.85591 37.4762 10.3643C39.2506 11.2426 40.8347 12.2821 42.2324 13.1993C45.3407 15.2392 48.5356 17.336 51.9094 15.6783C53.2969 20.392 53.5645 24.751 52.7117 29.3255C52.5685 29.2904 52.4191 29.2719 52.2651 29.2719C47.2154 29.2719 42.4709 27.3031 38.9048 23.728L36.3527 21.1694C35.6551 20.4702 34.5344 20.432 33.7907 21.0822L29.7644 24.6044C26.3235 27.6142 21.9111 29.2719 17.3397 29.2719H13.924C13.701 29.2719 13.4871 29.3108 13.2887 29.3823C13.2769 29.3217 13.2653 29.2612 13.2537 29.2002C12.2543 23.9583 12.4763 20.1072 13.8784 18.3563ZM57.7317 92.2499H8.45722V80.9825C8.45722 76.1176 12.4084 72.1597 17.2654 72.1597H23.6597C25.1397 72.1597 26.6918 72.1126 27.9732 71.5507C29.1578 71.0311 30.57 69.871 30.57 67.2939V62.7312C30.57 61.6957 29.7304 60.8562 28.695 60.8562C16.9804 60.8562 16.0495 54.7042 16.0495 46.6617C16.0495 46.0816 15.781 45.5343 15.3223 45.1792C14.8635 44.8238 14.266 44.7016 13.7048 44.8465C13.5435 44.8884 13.3757 44.9094 13.2066 44.9094C12.6396 44.9094 12.1178 44.6769 11.7379 44.2548C11.3588 43.8333 11.1831 43.2856 11.2435 42.7126C11.3353 41.8428 12.1515 41.0438 13.0255 40.9677C13.2126 40.9516 13.3975 40.9604 13.5767 40.9942C14.1248 41.0973 14.691 40.9514 15.1208 40.5952C15.5505 40.2389 15.7992 39.7098 15.7992 39.1516V33.0215H17.3399C22.8199 33.0215 28.1091 31.0345 32.2335 27.4265L34.938 25.0606L36.25 26.3759C40.0802 30.2159 45.0445 32.51 50.3903 32.9453V39.1516C50.3903 39.7098 50.6389 40.2389 51.0687 40.595C51.4982 40.9512 52.0639 41.0977 52.6127 40.994C52.7337 40.9711 52.8582 40.9597 52.9829 40.9597C53.5516 40.9597 54.0741 41.1933 54.4544 41.6172C54.8337 42.0404 55.0081 42.5902 54.9451 43.165C54.8547 43.9895 53.9491 44.8512 53.1167 44.9047C52.9009 44.9185 52.6885 44.8988 52.4849 44.8462C51.9237 44.7012 51.3263 44.8235 50.8673 45.1788C50.4087 45.5339 50.1402 46.0812 50.1402 46.6614C50.1402 55.8672 48.1249 60.8559 37.4946 60.8559C36.4592 60.8559 35.6196 61.6953 35.6196 62.7309V67.2935C35.6196 69.8705 37.0317 71.0307 38.2165 71.5503C39.4979 72.1122 41.0498 72.1593 42.5297 72.1593H48.9242C53.7811 72.1593 57.7324 76.1172 57.7324 80.9821V92.2499H57.7317Z" fill="#DAD8E9"/>
<path d="M41.9623 75.3642C41.0284 74.9169 39.9085 75.3114 39.4613 76.2453C38.2939 78.682 35.7949 80.2567 33.0949 80.2567C30.3949 80.2567 27.8959 78.682 26.7285 76.2451C26.2809 75.3112 25.1612 74.9167 24.2274 75.3642C23.2935 75.8116 22.8992 76.9314 23.3466 77.8653C25.1338 81.596 28.9601 84.0067 33.0949 84.0067C37.2298 84.0067 41.0561 81.596 42.8432 77.8653C43.2906 76.9314 42.8961 75.8116 41.9623 75.3642Z" fill="#DAD8E9"/>
</g>
<defs>
<clipPath id="clip0">
<rect width="96" height="96" fill="white" transform="translate(0.5)"/>
</clipPath>
</defs>
</svg>
