<svg width="32" height="32" viewBox="0 0 32 32" fill="none" xmlns="http://www.w3.org/2000/svg">
<path d="M26.8495 3.92352L17.4199 11.4547L19.1714 7.01142L26.8495 3.92352Z" fill="#E2761B" stroke="#E2761B" stroke-linecap="round" stroke-linejoin="round"></path>
<path d="M5.10352 3.92352L14.4479 11.5261L12.7816 7.01142L5.10352 3.92352Z" fill="#E4761B" stroke="#E4761B" stroke-linecap="round" stroke-linejoin="round"></path>
<path d="M23.46 21.3809L20.9512 25.5184L26.3192 27.1082L27.8529 21.4726L23.46 21.3809Z" fill="#E4761B" stroke="#E4761B" stroke-linecap="round" stroke-linejoin="round"></path>
<path d="M4.10938 21.4726L5.63364 27.1082L11.0017 25.5184L8.50228 21.3809L4.10938 21.4726Z" fill="#E4761B" stroke="#E4761B" stroke-linecap="round" stroke-linejoin="round"></path>
<path d="M10.7088 14.3898L9.21289 16.8254L14.5336 17.0802L14.3537 10.9146L10.7088 14.3898Z" fill="#E4761B" stroke="#E4761B" stroke-linecap="round" stroke-linejoin="round"></path>
<path d="M21.2467 14.3898L17.545 10.8433L17.4219 17.0802L22.7426 16.8254L21.2467 14.3898Z" fill="#E4761B" stroke="#E4761B" stroke-linecap="round" stroke-linejoin="round"></path>
<path d="M11 25.5184L14.2095 23.8369L11.445 21.5134L11 25.5184Z" fill="#E4761B" stroke="#E4761B" stroke-linecap="round" stroke-linejoin="round"></path>
<path d="M17.7422 23.8369L20.9517 25.5184L20.5067 21.5134L17.7422 23.8369Z" fill="#E4761B" stroke="#E4761B" stroke-linecap="round" stroke-linejoin="round"></path>
<path d="M20.9536 25.5184L17.7441 23.8369L17.9998 26.0891L17.9714 27.0369L20.9536 25.5184Z" fill="#D7C1B3" stroke="#D7C1B3" stroke-linecap="round" stroke-linejoin="round"></path>
<path d="M11.002 25.5184L13.9842 27.0369L13.9653 26.0891L14.2114 23.8369L11.002 25.5184Z" fill="#D7C1B3" stroke="#D7C1B3" stroke-linecap="round" stroke-linejoin="round"></path>
<path d="M14.0409 20.0255L11.3711 19.1796L13.2551 18.2523L14.0409 20.0255Z" fill="#233447" stroke="#233447" stroke-linecap="round" stroke-linejoin="round"></path>
<path d="M17.9121 20.0255L18.6979 18.2523L20.5914 19.1796L17.9121 20.0255Z" fill="#233447" stroke="#233447" stroke-linecap="round" stroke-linejoin="round"></path>
<path d="M11.0014 25.5185L11.4653 21.3809L8.50195 21.4726L11.0014 25.5185Z" fill="#CD6116" stroke="#CD6116" stroke-linecap="round" stroke-linejoin="round"></path>
<path d="M20.4883 21.3809L20.9522 25.5185L23.4611 21.4726L20.4883 21.3809Z" fill="#CD6116" stroke="#CD6116" stroke-linecap="round" stroke-linejoin="round"></path>
<path d="M22.7426 16.8255L17.4219 17.0803L17.9142 20.0255L18.7 18.2523L20.5935 19.1796L22.7426 16.8255Z" fill="#CD6116" stroke="#CD6116" stroke-linecap="round" stroke-linejoin="round"></path>
<path d="M11.3715 19.1796L13.2555 18.2523L14.0413 20.0255L14.5336 17.0803L9.21289 16.8255L11.3715 19.1796Z" fill="#CD6116" stroke="#CD6116" stroke-linecap="round" stroke-linejoin="round"></path>
<path d="M9.21094 16.8255L11.4452 21.5134L11.3695 19.1796L9.21094 16.8255Z" fill="#E4751F" stroke="#E4751F" stroke-linecap="round" stroke-linejoin="round"></path>
<path d="M20.5911 19.1796L20.5059 21.5134L22.7402 16.8255L20.5911 19.1796Z" fill="#E4751F" stroke="#E4751F" stroke-linecap="round" stroke-linejoin="round"></path>
<path d="M14.5314 17.0803L14.0391 20.0255L14.6639 23.5006L14.7965 18.9248L14.5314 17.0803Z" fill="#E4751F" stroke="#E4751F" stroke-linecap="round" stroke-linejoin="round"></path>
<path d="M17.4197 17.0803L17.1641 18.9147L17.2871 23.5006L17.912 20.0255L17.4197 17.0803Z" fill="#E4751F" stroke="#E4751F" stroke-linecap="round" stroke-linejoin="round"></path>
<path d="M17.912 20.0255L17.2871 23.5006L17.7415 23.837L20.506 21.5134L20.5913 19.1796L17.912 20.0255Z" fill="#F6851B" stroke="#F6851B" stroke-linecap="round" stroke-linejoin="round"></path>
<path d="M11.3711 19.1796L11.4468 21.5134L14.2113 23.837L14.6658 23.5006L14.0409 20.0255L11.3711 19.1796Z" fill="#F6851B" stroke="#F6851B" stroke-linecap="round" stroke-linejoin="round"></path>
<path d="M17.97 27.037L17.9984 26.0892L17.7617 25.865H14.1925L13.9653 26.0892L13.9842 27.037L11.002 25.5185L12.0434 26.4357L14.1641 28.0153H17.7901L19.9108 26.4357L20.9523 25.5185L17.97 27.037Z" fill="#C0AD9E" stroke="#C0AD9E" stroke-linecap="round" stroke-linejoin="round"></path>
<path d="M17.7424 23.8369L17.2879 23.5006H14.6654L14.211 23.8369L13.9648 26.0891L14.1921 25.8649H17.7613L17.998 26.0891L17.7424 23.8369Z" fill="#161616" stroke="#161616" stroke-linecap="round" stroke-linejoin="round"></path>
<path d="M27.2475 11.9439L28.0428 7.78594L26.8499 3.92352L17.7422 11.2L21.2451 14.3898L26.1966 15.949L27.2854 14.5732L26.812 14.2063L27.5694 13.4624L26.9919 12.9732L27.7493 12.3515L27.2475 11.9439Z" fill="#763D16" stroke="#763D16" stroke-linecap="round" stroke-linejoin="round"></path>
<path d="M3.91016 7.78594L4.71489 11.9439L4.20365 12.3515L4.96104 12.9732L4.38353 13.4624L5.14093 14.2063L4.66755 14.5732L5.75631 15.949L10.7078 14.3898L14.2107 11.2L5.10306 3.92352L3.91016 7.78594Z" fill="#763D16" stroke="#763D16" stroke-linecap="round" stroke-linejoin="round"></path>
<path d="M26.1958 15.9491L21.2443 14.3898L22.7402 16.8255L20.5059 21.5134L23.4597 21.4726H27.8526L26.1958 15.9491Z" fill="#F6851B" stroke="#F6851B" stroke-linecap="round" stroke-linejoin="round"></path>
<path d="M10.7082 14.3898L5.75671 15.9491L4.10938 21.4726H8.50228L11.4467 21.5134L9.21234 16.8255L10.7082 14.3898Z" fill="#F6851B" stroke="#F6851B" stroke-linecap="round" stroke-linejoin="round"></path>
<path d="M17.4203 17.0803L17.7422 11.2L19.1718 7.01147H12.7812L14.2108 11.2L14.5327 17.0803L14.6558 18.935L14.6653 23.5006H17.2877L17.2972 18.935L17.4203 17.0803Z" fill="#F6851B" stroke="#F6851B" stroke-linecap="round" stroke-linejoin="round"></path>
</svg>